#N canvas 696 174 525 383 10;
#X obj 49 306 sendOSC;
#X msg 145 256 connect localhost 7770;
#X msg 145 277 disconnect;
#X msg 51 19 /ping;
#X obj 49 211 list prepend send;
#X obj 49 234 list trim;
#X obj 49 326 dumpOSC 7771;
#X obj 49 346 print OSC;
#X msg 233 40 /sampler/quit;
#X msg 96 19 /pong;
#X msg 233 61 /sampler/play/start 0 0;
#X msg 233 82 /sampler/play/stop 0;
#X msg 232 103 /sampler/record/start 0;
#X msg 232 124 /sampler/record/stop;
#X msg 232 145 /sampler/load 0 test.wav;
#X msg 232 166 /sampler/save 0 test.wav;
#X obj 145 235 loadbang;
#X msg 233 19 /sampler/play/start /var/tmp/example.wav;
#X connect 1 0 0 0;
#X connect 2 0 0 0;
#X connect 3 0 4 0;
#X connect 4 0 5 0;
#X connect 5 0 0 0;
#X connect 6 0 7 0;
#X connect 8 0 4 0;
#X connect 9 0 4 0;
#X connect 10 0 4 0;
#X connect 11 0 4 0;
#X connect 12 0 4 0;
#X connect 13 0 4 0;
#X connect 14 0 4 0;
#X connect 15 0 4 0;
#X connect 16 0 1 0;
#X connect 17 0 4 0;
