#N canvas 696 174 450 300 10;
#X obj 122 221 sendOSC;
#X msg 104 44 connect localhost 7770;
#X msg 266 44 disconnect;
#X msg 53 85 /ping;
#X obj 50 122 list prepend send;
#X obj 52 161 list trim;
#X obj 221 198 dumpOSC 7771;
#X obj 208 239 print OSC;
#X connect 1 0 0 0;
#X connect 2 0 0 0;
#X connect 3 0 4 0;
#X connect 4 0 5 0;
#X connect 5 0 0 0;
#X connect 6 0 7 0;
